/vscmnt/brussel_pixiu_data/_data_brussel/112/vsc11236/PredSimResults/SUBJ07mtu3D/worker6.mot
version=1
nRows=8
nColumns=50
inDegrees=yes
endheader
                time	         pelvis_tilt	         pelvis_list	     pelvis_rotation	           pelvis_tx	           pelvis_ty	           pelvis_tz	       hip_flexion_r	     hip_adduction_r	      hip_rotation_r	        knee_angle_r	       ankle_angle_r	         mtp_angle_r	       hip_flexion_l	     hip_adduction_l	      hip_rotation_l	        knee_angle_l	       ankle_angle_l	         mtp_angle_l	    lumbar_extension	      lumbar_bending	     lumbar_rotation	 ercspn_r/activation	 intobl_r/activation	 extobl_r/activation	    abd_r/activation	    add_r/activation	hamstrings_r/activation	bifemsh_r/activation	glut_max_r/activation	iliopsoas_r/activation	rect_fem_r/activation	  vasti_r/activation	gastroc_r/activation	 soleus_r/activation	tib_ant_r/activation	 ercspn_l/activation	 intobl_l/activation	 extobl_l/activation	    abd_l/activation	    add_l/activation	hamstrings_l/activation	bifemsh_l/activation	glut_max_l/activation	iliopsoas_l/activation	rect_fem_l/activation	  vasti_l/activation	gastroc_l/activation	 soleus_l/activation	tib_ant_l/activation	
          1.01901344	         -3.76085743	         -1.04368250	          6.59878037	          1.24319639	          0.85553849	         -0.01120821	         29.10447179	         -0.01417895	         -2.07388319	         -7.80179285	          6.05608017	          0.26560808	        -12.97758488	          0.46604503	          3.89493685	         -8.29125983	         10.83258637	         21.94813590	         -9.15892105	          0.24690447	         -3.44498241	          0.10511268	          0.18069174	          0.02336500	          0.04834862	          0.09637845	          0.04080308	          0.08980722	          0.02986187	          0.05725824	          0.02972278	          0.01000004	          0.01000000	          0.01000000	          0.32137562	          0.08159552	          0.01000000	          0.01000002	          0.06326197	          0.01059996	          0.01608783	          0.12979392	          0.03507507	          0.45635658	          0.01000009	          0.01000002	          0.09854158	          0.29065088	          0.01750661	
          1.02920357	         -3.82584983	         -0.95681516	          6.40608086	          1.25760934	          0.85402510	         -0.01133800	         28.64599672	          0.25310828	         -1.18360460	         -8.37524201	          5.74290640	          0.26269040	        -13.05782170	          0.61735884	          3.26968237	         -9.89888211	         10.33806450	         23.58922731	         -8.95055644	          0.66989032	         -3.59607661	          0.08985256	          0.15445911	          0.01997289	          0.04132942	          0.11942894	          0.03487934	          0.07676913	          0.09375780	          0.04894555	          0.02540767	          0.01169835	          0.02131545	          0.02190945	          0.30813308	          0.12215820	          0.01000000	          0.01000002	          0.05407766	          0.02562126	          0.01375235	          0.11095057	          0.02998291	          0.46253648	          0.01000060	          0.01335678	          0.08423541	          0.27516740	          0.01496501	
          1.03939370	         -3.87698878	         -0.89045776	          6.16926506	          1.27219638	          0.85264968	         -0.01141710	         28.12227728	          0.49616680	         -0.28548656	         -9.10544821	          5.48728460	          0.25333947	        -13.01676922	          0.74995570	          2.61667312	        -11.76471235	          9.72843699	         25.23438920	         -8.73137396	          1.12679575	         -3.73227563	          0.09070735	          0.13808632	          0.01707325	          0.09426462	          0.11517223	          0.03997531	          0.06562392	          0.10288842	          0.04183968	          0.02171902	          0.01000000	          0.01822090	          0.01872866	          0.34771237	          0.12971930	          0.01000000	          0.01000003	          0.04622672	          0.02190160	          0.01175585	          0.09484289	          0.02563002	          0.44590724	          0.01000011	          0.01141767	          0.07200620	          0.24058790	          0.01279241	
          1.04958384	         -3.91617354	         -0.83906065	          5.88747878	          1.28679061	          0.85155381	         -0.01140495	         27.57153719	          0.74348574	          0.51749032	         -9.76494241	          5.10042978	          0.24112751	        -12.77227160	          0.86648030	          1.93602743	        -14.00926847	          8.97888614	         26.83911972	         -8.52163971	          1.60308031	         -3.84861326	          0.09513498	          0.11803909	          0.01459458	          0.12950736	          0.11709224	          0.04158457	          0.05609673	          0.10867701	          0.03576544	          0.01856589	          0.03277485	          0.01557561	          0.01600966	          0.36852684	          0.14963370	          0.01000000	          0.01000002	          0.03951557	          0.01872197	          0.01954021	          0.08107370	          0.02190908	          0.42414432	          0.01000008	          0.01169849	          0.06155241	          0.20565959	          0.01093522	
          1.05977397	         -3.94376981	         -0.80709750	          5.56757994	          1.30126637	          0.85085336	         -0.01130290	         27.02830490	          1.00601609	          1.22007711	        -10.43533886	          4.74526489	          0.22638263	        -12.26780049	          0.95615449	          1.22356472	        -16.70514634	          8.05964863	         28.30981317	         -8.33403963	          2.10046525	         -3.94437029	          0.09364486	          0.10090229	          0.01247575	          0.15405878	          0.11650087	          0.04471668	          0.04795269	          0.10247548	          0.03057305	          0.01587053	          0.07300437	          0.01331437	          0.01368540	          0.38919431	          0.16696316	          0.01000000	          0.01000002	          0.03377874	          0.02580830	          0.02297167	          0.06930351	          0.01872834	          0.39137484	          0.01000002	          0.01000013	          0.05261629	          0.17580213	          0.00999999	
          1.06996411	         -3.96062067	         -0.79470225	          5.21475713	          1.31555216	          0.85063988	         -0.01112020	         26.46202461	          1.28090063	          1.83388832	        -11.06933012	          4.50076693	          0.20893587	        -11.46914154	          1.00952149	          0.47405440	        -19.88439861	          6.94914355	         29.47044187	         -8.17400869	          2.61542063	         -4.01856657	          0.08632444	          0.08625340	          0.01066454	          0.17372179	          0.10364141	          0.04409440	          0.04099098	          0.08957732	          0.02613449	          0.01356648	          0.12144838	          0.01138143	          0.01169858	          0.39656604	          0.18214217	          0.01000000	          0.01000004	          0.02887477	          0.02895607	          0.01963671	          0.05924213	          0.01600938	          0.33988436	          0.01000002	          0.01000000	          0.04497751	          0.15027935	          0.01000000	
          1.08015424	         -3.96840085	         -0.79873454	          4.83134766	          1.32959708	          0.85100719	         -0.01086851	         25.82275191	          1.55993588	          2.37000632	        -11.57451478	          4.39446673	          0.19312674	        -10.36766085	          1.01731034	         -0.31343196	        -23.52138718	          5.59935533	         30.13057868	         -8.04515461	          3.14112843	         -4.06894217	          0.08116335	          0.07373122	          0.01000001	          0.18232121	          0.08859502	          0.04346180	          0.03503997	          0.07657260	          0.02234031	          0.01159695	          0.15516426	          0.01000010	          0.01000025	          0.39441814	          0.19254396	          0.01000000	          0.01000003	          0.02468276	          0.02914849	          0.01678589	          0.05351187	          0.01368515	          0.29054029	          0.01000000	          0.00999999	          0.03844772	          0.12846195	          0.01000003	
          1.09034438	         -3.96858440	         -0.81152344	          4.41972435	          1.34337967	          0.85198480	         -0.01056114	         25.07633987	          1.83215681	          2.84714000	        -11.88368390	          4.41122719	          0.18091439	         -8.97973855	          0.97518584	         -1.13441877	        -27.54550721	          3.98089427	         30.09528118	         -7.94793657	          3.66621215	         -4.09427302	          0.06938015	          0.06302699	          0.01000002	          0.18664209	          0.07573290	          0.04148702	          0.02995292	          0.06545587	          0.01909697	          0.01000009	          0.16621376	          0.01000004	          0.01000003	          0.38276485	          0.19754818	          0.01000000	          0.01000002	          0.02109934	          0.03209773	          0.01434894	          0.04574357	          0.01169836	          0.24835994	          0.01000000	          0.00999999	          0.03286592	          0.10981197	          0.04109401	
